<?xml version="1.0" encoding="UTF-8" standalone="no"?>
<!-- Created with Inkscape (http://www.inkscape.org/) -->

<svg
   version="1.1"
   id="svg1"
   width="198"
   height="198"
   viewBox="0 0 198 198"
   sodipodi:docname="d.svg"
   inkscape:version="1.4.2 (f4327f4, 2025-05-13)"
   xmlns:inkscape="http://www.inkscape.org/namespaces/inkscape"
   xmlns:sodipodi="http://sodipodi.sourceforge.net/DTD/sodipodi-0.dtd"
   xmlns:xlink="http://www.w3.org/1999/xlink"
   xmlns="http://www.w3.org/2000/svg"
   xmlns:svg="http://www.w3.org/2000/svg">
  <defs
     id="defs1">
    <linearGradient
       id="swatch8"
       inkscape:swatch="solid">
      <stop
         style="stop-color:#000000;stop-opacity:1;"
         offset="0"
         id="stop8" />
    </linearGradient>
  </defs>
  <sodipodi:namedview
     id="namedview1"
     pagecolor="#505050"
     bordercolor="#eeeeee"
     borderopacity="1"
     inkscape:showpageshadow="0"
     inkscape:pageopacity="0"
     inkscape:pagecheckerboard="0"
     inkscape:deskcolor="#505050"
     inkscape:zoom="22.627417"
     inkscape:cx="71.572464"
     inkscape:cy="106.1765"
     inkscape:window-width="3840"
     inkscape:window-height="2054"
     inkscape:window-x="1909"
     inkscape:window-y="-11"
     inkscape:window-maximized="1"
     inkscape:current-layer="svg1" />
  <g
     inkscape:groupmode="layer"
     inkscape:label="Image"
     id="g1">
   <path
      style="fill:rgb(34,178,233)"
      d="M 86.309017,192.75 C 85.864058,192.0625 85.5,187.45 85.5,182.5 v -9 l -2.70239,0.0357 c -1.486315,0.0197 -1.844887,0.0532 -2.211758,-0.3924 -0.203922,-0.2477 -1.054723,-1.33589 -1.835852,-2.84643 -0.781129,-1.51054 -0.263713,-3.15759 -0.189421,-3.52412 0.154912,-0.76428 6.888764,-37.57726 7.913529,-45.73334 1.111504,-8.84644 5.401749,-14.04718 9.07388,-10.99958 2.091801,1.73604 1.796704,2.87862 -1.020059,3.94955 -1.359639,0.51694 -2.706397,1.9683 -2.992795,3.22525 C 91.076373,119.22805 83,167.83569 83,168.58332 c 0,0.16081 0.9,0.22459 2,0.14173 1.1,-0.0829 2.00087,-0.3924 2.001934,-0.68785 C 87.002998,167.74174 87.902128,158.275 89,147 c 1.097872,-11.275 1.997002,-20.59497 1.998066,-20.71104 0.0011,-0.11608 0.880945,-1.02997 1.955291,-2.03088 l 1.953358,-1.81983 4.046642,0.38591 L 103,123.21007 V 125.10504 127 h -3.440983 c -4.893938,0 -4.941028,0.22562 -8.035535,38.5 -0.355742,4.4 -1.005158,11.375 -1.443147,15.5 -1.019178,9.59868 -1.245004,9.45042 11.508845,7.55566 11.54143,-1.71463 12.63647,-2.36285 11.91928,-7.05566 -0.25216,-1.65 -1.1918,-13.57416 -2.06058,-26.5 -2.38632,-35.50388 -3.28711,-36.02679 -3.3802,-4.78518 L 108,172.92963 l -2.09674,1.12214 -2.09674,1.12215 -5.903262,-0.68515 L 92,173.80363 v -2.03098 -2.03098 l 6,0.67882 6,0.67882 v -27.92768 -27.92769 l -2.17518,-1.44426 c -1.37101,-0.91032 -1.94818,-2.03582 -1.56117,-3.04435 l 0.61401,-1.60008 2.31117,0.56681 C 107.07244,110.6745 108,112.05367 108,116.87569 l 0.27273,6.59444 2.48976,0.64371 2.76248,2.60734 2.22705,29.83092 2.22704,29.83091 -1.40271,2.14081 -1.40272,2.14081 -10.04162,1.66769 C 93.161208,194.32039 87.408021,194.44805 86.309017,192.75 Z M 58.026694,140.36901 c -4.218615,-3.54973 -3.82052,-5.83658 1.936246,-11.12272 2.729616,-2.50646 4.438759,-4.53823 4.972486,-4.97987 0.536599,-0.44402 1.919923,-1.53704 3.106066,-2.29597 1.521987,-1.08375 2.999196,-2.25353 4.415749,-2.21351 l 3.129005,0.22096 1.167558,3.35704 c 1.193431,3.43143 -9.351748,17.19242 -13.818757,18.87296 l -1.88166,0.7079 z M 127.77019,135.25 c -9.45182,-9.36298 -9.05842,-16.62231 -2.93776,-15.59375 l 2.04555,0.34375 7.56101,6.67336 7.56101,6.67337 v 2.37209 c 0,2.6178 -4.45147,7.24993 -6.73981,7.24993 -0.80064,0 -3.56035,-3.82604 -7.49,-7.71875 z m 10.32529,-21.87716 -25.40453,-4.41323 -2.82338,-3.16731 c -1.73962,-1.95152 -0.54997,-6.774853 1.12628,-6.01521 1.09036,0.49413 2.4307,1.20935 2.96463,2.6137 1.1403,2.99922 -0.86486,2.4889 29.95145,7.62277 l 24.40992,4.06659 1.04008,-1.04008 0.13382,-1.13382 -0.0684,-0.88093 c -0.0587,-0.75584 -10.40684,-1.85509 -21.93504,-2.93115 l -20.96037,-1.95649 -1.76496,-2.17962 C 123.74263,102.69554 123,100.11273 123,97.819665 v -3.958767 l 2.25,0.319551 L 127.5,94.5 127.24311,97 c -0.14129,1.375 0.1461,3.12048 0.63865,3.87884 l 0.89553,1.37884 13.86135,1.29963 c 21.41156,2.00753 28.03067,3.16799 27.64268,1.754 -0.2141,-0.78026 -0.0292,-3.08502 0.0625,-6.312343 L 170.5,93.5 l -27.76872,-0.265852 -27.76873,-0.265851 -0.94926,2.496751 -0.94926,2.496751 -2.64792,-0.996684 c -1.9448,-0.732028 -0.61807,-2.985106 0.31814,-5.037202 0.4689,-1.027778 1.71632,-2.745404 1.96524,-2.992574 0.20424,-0.202805 1.66172,-0.280413 4.34876,-0.09106 l 4.88552,0.344279 2.37572,-2.76194 2.37572,-2.76194 29.90741,-2.271309 29.90741,-2.271308 2.23412,1.451619 c 2.4995,1.624044 2.56895,1.862551 4.72223,16.216371 1.88515,12.566499 1.89085,11.719899 -0.0922,13.702969 l -1.63587,1.63587 -8.86413,-0.69343 -8.86413,-0.69343 -0.0318,1.87899 c -0.0175,1.03344 -0.6296,2.66648 -1.36025,3.62898 l -1.32844,1.75 -3.88975,-0.10697 c -2.13937,-0.0588 -15.3218,-2.09291 -29.29428,-4.52019 z M 189.8843,105.25 c -0.1874,-5.523482 -2.07716,-17.805489 -3.05342,-19.844894 l -1.00282,-2.094894 -2.16403,0.294962 C 182.47381,83.767404 170.475,84.636606 157,85.536736 c -32.66244,2.18185 -34.90564,3.286509 -6.87244,3.384317 L 172.75511,89 l 1.20633,1.453533 1.20632,1.453534 -0.33388,6.954288 c -0.18363,3.824855 0.0157,6.408275 0.0685,7.018705 0.0258,0.56745 -0.62109,0.58386 0.86329,0.72741 0.55114,0.0533 2.59687,0.45329 5.48437,0.65529 2.8875,0.202 6.03246,0.45052 6.9888,0.55226 L 189.9776,108 Z M 70.690025,90 72.345012,91.828741 74,93.657481 v 4.744584 4.744585 l -1.75,-0.33152 -1.75,-0.33151 -0.317242,-3.293886 -0.317243,-3.293887 -2.182757,-0.8981 C 65.995964,94.303713 32.399486,90.951432 27.5,90.988283 c -0.598325,0.0045 -0.864961,2.627083 -0.66381,6.52912 l 0.336191,6.521597 27.332937,-0.0716 27.332937,-0.0716 1.647774,-2.51482 1.647774,-2.514823 1.455677,1.208103 C 90.206825,103.07639 85.654186,108 79.260904,108 h -4.356836 l -2.207497,2.56637 -2.207498,2.56637 -14.494537,1.02286 c -7.971995,0.56258 -15.147644,1.22836 -15.945886,1.47951 -0.798243,0.25116 -8.247909,0.70045 -16.554814,0.99842 L 8.3903734,117.1753 7.2905152,115.83765 C 6.1759514,114.48211 3,95.375977 3,90.02643 3,88.248559 3.5725657,86.580719 4.6653919,85.891538 l 2.2178191,-1.199774 4.863637,0.406682 C 14.387042,85.31921 18.1875,85.907603 20.25,85.940389 L 24,86 v -2.3 c 0,-5.861124 1.320612,-5.873951 34.315151,-0.333307 26.13755,4.389177 28.747867,3.966099 29.323254,9.211456 l 0.40006,3.647043 -3.084946,0.05053 c -1.013346,0.0166 -0.918621,-0.796604 -1.705864,-2.217191 C 82.05398,91.90454 76.018243,90.090473 72.095012,90.023857 L 70.690025,90 m -26.886036,21.08528 c 12.817194,-1.02296 23.579694,-2.13563 23.916666,-2.4726 C 68.057628,108.27571 58.653078,108 46.821654,108 H 25.309975 l -1.748246,-1.93179 -1.748246,-1.93179 0.895366,-6.938838 0.895366,-6.938838 -7.552108,-0.573911 c -4.153659,-0.315651 -7.928769,-0.199706 -8.3891336,0.257655 -0.7808495,0.775755 1.8198533,20.411692 2.9444526,22.231332 0.743183,1.20249 7.104506,0.9939 33.196563,-1.08854 z M 69.916667,89.688879 C 69.39557,89.299781 30.957373,82.962434 29.25,82.984122 28.5625,82.992855 28,83.838008 28,84.86224 v 1.86224 l 14.25,1.253577 c 7.8375,0.689467 17.175,1.559903 20.75,1.934303 6.001403,0.628509 7.9724,0.564825 6.916667,-0.223481 m 20.72906,-3.126138 -2.258775,-2.437258 0.428665,-3.671824 0.428665,-3.671825 -2.583668,-2.279 -2.583668,-2.820378 -0.476789,-5.375782 C 81.417816,41.700864 78.671949,10.098564 80.358141,8.8865942 80.718121,8.627855 81.542221,8.0674146 82.319603,7.8572317 83.605584,7.5095373 93.550832,5.4665287 104.24483,4.2751421 l 4.74484,-0.5286077 1.63149,1.3540154 1.63148,1.3540155 -0.66354,8.7898187 -0.52855,9.310507 2.94431,0.207925 c 6.63129,0.468298 5.07716,2.395817 -0.1262,33.737184 l -4.31657,26 -2.23559,2.25 c -1.22957,1.2375 -3.15605,2.25 -4.28105,2.25 -2.78911,0 -2.66719,-3.248639 0.16937,-4.512872 L 105.42965,83.5 l 4.24893,-25 c 2.33691,-13.75 4.26523,-26.0125 4.28517,-27.25 L 114,29 h -1.80224 -1.87938 l -1.8267,21.096085 -1.8267,21.096085 -1.58249,1.850652 L 103.5,74.893475 99,75.177128 94.5,75.460781 V 73.480391 71.5 l 3,-0.338485 c 3.69634,-0.417053 5.5,-1.821925 5.5,-4.28396 0,-4.477171 0.44019,-13.919638 2.22682,-31.065055 L 106.04092,28 H 99.52046 93 v 27.476947 27.476947 l 2.517486,1.64952 2.517486,1.649521 -1.139931,1.373532 c -1.680814,2.025258 -3.706016,1.680539 -6.249314,-1.063726 z m -1.153703,-62.829424 3.546213,-0.584865 5.730882,0.561277 c 2.640281,0.128539 5.514811,0.259107 7.954581,0.589508 l 0.69891,-6.897355 c 0.47918,-4.728887 0.48495,-8.8276532 0.22345,-9.0891561 C 107.08591,7.7525734 93.152666,9.7094175 87.75,11.107014 L 84,12.077088 84.0099,15.288544 C 84.02188,19.158695 87.878957,69.288778 88.219478,70 c 0.131666,0.275 0.361218,-9.4 0.510117,-21.5 l 0.270724,-22 z M 62.75,69.915654 C 58.4875,66.023036 55,62.035266 55,61.053943 55,58.318431 58.881326,54 61.339953,54 h 2.194792 l 6.732627,8.160453 C 76.876244,70.170904 78.190087,73.409913 75.8,75.8 73.377966,78.222034 70.351179,76.857233 62.75,69.915654 Z M 121.09918,74.75 c -1.26866,-3.41293 0.28484,-6.422483 8.25906,-16 L 133.31307,54 h 2.25457 c 1.28927,0 3.36148,1.315489 4.83987,3.072455 l 2.5853,3.072455 -1.11877,2.177545 c -0.61532,1.19765 -2.3012,3.221319 -3.7464,4.497042 -1.4452,1.275723 -3.75264,3.312334 -5.12764,4.525802 -6.94395,6.128189 -10.50928,7.148194 -11.90082,3.404701 z"
      id="path8"
      sodipodi:nodetypes="ssccsssssssscsscscccccssssssscccccccccccsscsscccccccssssssscsscssscccsssccsssscccsscsscccsscssscccccsssscccccssscccssccscsscssscccscssscscccccccccssscccccsscccssscssscsscssscssscssscccccsssscsscsscscccccsssscccccsscssscsscccccccccccssscccccccssccscsssccssccssscssssscsscssss" />
  </g>
</svg>
